<svg xmlns="http://www.w3.org/2000/svg" xmlns:xlink="http://www.w3.org/1999/xlink" version="1.1" id="Layer_1" x="0px" y="0px" width="100%" viewBox="0 0 3715 1121" enable-background="new 0 0 3715 1121" xml:space="preserve">

<path fill="#32FF7C" opacity="1.000000" stroke="none" d=" M0.999994,875.468628   C1.664683,874.274414 2.746996,873.641968 2.932548,872.809631   C6.857011,855.206543 9.972485,837.389038 14.685854,820.003723   C22.174891,792.380432 32.751045,765.792053 45.505756,740.183960   C57.186996,716.731140 68.889427,693.220764 82.059692,670.595581   C97.510109,644.053406 113.868813,617.973938 131.107178,592.557617   C147.590469,568.254700 165.456314,544.869629 183.192261,521.442871   C195.930344,504.617615 209.300949,488.261536 222.688751,471.941742   C230.102325,462.904449 238.068329,454.315277 245.896454,445.624237   C261.701538,428.076843 277.250458,410.281952 293.524933,393.178986   C309.947205,375.920776 327.069763,359.325348 344.088745,342.646942   C345.123138,341.633301 348.445435,341.649689 349.857452,342.535278   C359.907166,348.838226 369.736633,355.492310 379.978577,362.260895   C378.906281,363.429169 377.999695,364.492371 377.015320,365.477966   C364.413910,378.094604 351.735779,390.635376 339.211212,403.327759   C328.000092,414.689087 316.723206,426.000000 305.892822,437.718933   C290.761139,454.092041 275.683228,470.537811 261.192932,487.474884   C243.398224,508.274384 225.709045,529.206055 208.939529,550.829224   C191.345200,573.515930 174.470276,596.794128 158.067459,620.361267   C143.192627,641.732971 128.827606,663.506775 115.268425,685.731995   C104.595917,703.225586 95.348953,721.600220 85.725693,739.719910   C70.685051,768.040100 58.192757,797.445435 48.941174,828.183044   C43.582840,845.985718 39.670353,864.011292 37.780842,882.607056   C36.055019,899.591736 37.009647,916.207764 42.287487,932.194580   C49.245823,953.271729 63.899879,967.635437 84.976677,974.898376   C102.087257,980.794495 119.718613,980.925537 137.570221,979.088562   C172.431290,975.501526 205.070755,964.353333 236.911423,950.473511   C251.070465,944.301331 265.369293,938.257202 278.884277,930.842041   C303.395203,917.393677 327.682312,903.473389 351.467194,888.785522   C371.832703,876.209229 391.672760,862.715820 411.177094,848.830078   C429.959045,835.458740 448.123840,821.207764 466.350647,807.073608   C480.068481,796.435913 493.567474,785.507080 506.949951,774.448975   C515.470886,767.407959 523.642090,759.939941 531.897339,752.581726   C547.784912,738.420166 563.621216,724.201111 579.476135,710.002869   C579.847961,709.669800 580.186890,709.300171 580.543091,708.949524   C602.119995,687.708374 623.770691,666.541382 645.233337,645.185425   C652.508362,637.946594 659.308716,630.230652 666.739258,622.291138   C671.850525,628.089111 676.730286,633.360535 681.310120,638.880798   C688.322632,647.333252 695.171143,655.923218 702.012085,664.516296   C712.214844,677.332336 722.829773,689.856140 732.407471,703.126221   C748.707153,725.709839 764.257446,748.833191 780.349854,771.569031   C782.312866,774.342407 781.949402,775.635437 779.820007,777.747314   C764.083008,793.354919 748.632446,809.256042 732.712524,824.673218   C718.330383,838.601257 703.654053,852.240356 688.764709,865.625671   C673.959412,878.935547 659.108948,892.245789 643.597168,904.707947   C616.823486,926.217896 589.839478,947.495483 562.337708,968.060059   C541.999451,983.268066 520.985840,997.627014 499.739502,1011.549988   C481.507599,1023.497498 462.772400,1034.738525 443.793304,1045.466797   C425.361359,1055.885742 406.548798,1065.690308 387.524872,1074.990234   C352.880493,1091.926392 316.941772,1105.584351 279.417389,1114.699097   C269.306793,1117.155029 258.871185,1118.268066 248.595413,1120.058716   C247.866898,1120.185669 247.226486,1120.818359 246.772552,1121.607910   C228.645767,1122.000000 210.291550,1122.000000 191.709351,1121.620483   C188.556244,1120.492065 185.634521,1119.729492 182.705322,1118.996826   C163.838455,1114.277344 147.123001,1106.165161 133.169479,1091.909424   C99.175125,1057.178589 64.624260,1022.990784 30.159140,988.723450   C16.025780,974.671265 7.737015,957.763367 3.898153,938.398438   C3.454797,936.161987 1.990791,934.127930 0.999999,932.000000   C1.000000,913.312439 1.000000,894.624878 0.999994,875.468628  z"/>
<path fill="#3073FF" opacity="1.000000" stroke="none" d=" M256.531342,1.000000   C257.557343,1.660737 258.059723,2.842162 258.679901,2.907621   C291.907104,6.414825 323.628693,16.076736 354.892059,27.158825   C389.621124,39.469410 422.794006,55.453697 455.250488,72.804031   C491.330750,92.091560 526.083252,113.618805 559.687195,136.976105   C566.649780,141.815659 573.605225,146.665527 580.053162,151.154999   C602.709167,137.935486 625.141602,124.355568 648.052795,111.638176   C665.425659,101.994949 683.150391,92.893379 701.179016,84.545273   C729.774475,71.304291 758.961121,59.425865 789.720093,52.011864   C803.134949,48.778408 816.541809,45.087906 830.174622,43.299763   C844.211731,41.458595 858.553101,40.736137 872.700378,41.238609   C890.517639,41.871426 908.087158,45.379517 923.912354,54.143341   C931.136475,58.143959 938.200195,63.025887 944.058655,68.803932   C979.889343,104.143082 1015.376770,139.830673 1050.928223,175.452438   C1065.237671,189.790192 1073.323730,207.498581 1076.802734,227.106247   C1078.859863,238.700394 1080.327148,250.707993 1079.684204,262.399048   C1078.753296,279.325317 1076.449097,296.278412 1073.337036,312.960052   C1067.748413,342.916260 1057.821533,371.713867 1045.449097,399.445618   C1033.646240,425.900909 1020.756104,451.944885 1006.932251,477.403137   C994.291321,500.683014 979.751648,522.931396 966.079102,545.652588   C964.630066,548.060547 964.430542,550.050171 966.231934,552.967834   C979.575562,574.580872 992.950867,596.194031 1005.507507,618.267151   C1015.259521,635.410034 1024.560669,652.889038 1032.762817,670.813232   C1042.549438,692.199951 1051.324829,714.075195 1059.848389,736.006958   C1068.743896,758.895996 1074.871948,782.675049 1079.729126,806.716919   C1081.892212,817.424866 1083.135742,828.387939 1083.869263,839.297607   C1084.758423,852.522888 1085.675293,865.881531 1084.793213,879.062866   C1082.869141,907.816833 1075.648560,935.059998 1056.603516,957.751160   C1051.328003,964.036621 1045.053467,969.488403 1039.157959,975.241333   C1038.582275,975.803223 1037.446167,975.790710 1035.607178,976.324341   C1046.154785,962.603333 1051.275269,947.510071 1053.739014,931.757629   C1055.840454,918.321167 1056.510620,904.734070 1055.287598,890.908142   C1053.552124,871.289185 1050.667480,851.967651 1044.942261,833.206482   C1038.695679,812.736572 1032.285034,792.243896 1024.439819,772.355103   C1016.575623,752.417908 1007.899902,732.647156 997.706421,713.817566   C981.429932,683.751221 964.640991,653.856567 946.154602,625.120728   C925.717285,593.352539 903.566345,562.649109 881.304993,532.106323   C868.091614,513.977295 853.380493,496.924377 839.053650,479.627136   C827.316223,465.456116 815.277710,451.528168 803.136292,437.700012   C793.328918,426.530182 783.398621,415.449799 773.118042,404.717560   C751.038269,381.667816 728.960571,358.604523 706.371033,336.058746   C691.248047,320.965027 675.440369,306.536957 659.581665,292.206543   C644.544128,278.618256 629.319702,265.206421 613.673584,252.329346   C593.163208,235.448959 572.577454,218.605225 551.261841,202.771957   C523.770691,182.351379 495.861755,162.448120 467.487091,143.277649   C448.354553,130.351318 428.364136,118.623253 408.281708,107.195267   C389.745361,96.647064 370.861664,86.613152 351.621521,77.418701   C316.227814,60.504833 279.744324,46.214008 241.426849,37.392223   C227.474823,34.180069 213.068192,32.829624 198.812149,31.097385   C191.451538,30.203007 183.942032,29.778296 176.542206,30.104225   C154.448654,31.077349 133.194214,35.338112 114.439270,48.049160   C113.912041,48.406487 113.348831,48.778706 112.747940,48.936234   C112.324043,49.047356 111.807861,48.806416 111.270760,48.711708   C125.858208,29.276943 144.750717,15.957719 167.783569,8.780280   C176.119034,6.182806 184.859833,4.890748 193.402695,2.945979   C194.133392,2.779634 194.765930,2.181957 195.222046,1.392327   C215.354233,1.000000 235.708450,1.000000 256.531342,1.000000  M654.408936,149.930603   C640.607544,158.322693 626.806213,166.714783 612.625854,175.337296   C655.299927,207.991669 695.582458,242.309433 734.164001,278.635010   C773.091125,315.286072 810.217651,353.668213 845.502808,394.040070   C846.399170,393.026367 847.315125,392.255615 847.903992,391.286194   C867.022461,359.812622 885.583191,328.039032 900.905518,294.478729   C911.840210,270.528625 921.703186,246.182266 928.611938,220.741547   C934.201477,200.158325 938.166077,179.273453 937.909424,157.836807   C937.839172,151.970306 936.792114,146.099564 935.976807,140.261017   C933.746826,124.292641 927.414856,109.978119 915.954834,98.738358   C902.522766,85.564369 885.340576,79.589432 866.900574,78.140442   C847.271179,76.597992 827.717346,78.641418 808.603638,83.267387   C775.955078,91.169106 744.650757,103.008606 714.601868,117.930336   C694.477844,127.923523 674.858154,138.932053 654.408936,149.930603  z"/>
<path fill="#3073FF" opacity="1.000000" stroke="none" d=" M3716.000000,705.531372   C3715.335205,706.726440 3714.183594,707.388367 3714.077393,708.188843   C3711.578857,727.041870 3705.907715,744.919922 3698.360352,762.338806   C3690.171875,781.236938 3679.113037,798.345886 3666.117676,814.112183   C3650.630615,832.901917 3632.502197,848.832703 3611.217529,860.995850   C3595.471191,869.994080 3579.031982,877.159424 3561.323242,881.325256   C3546.033447,884.921936 3530.540039,886.682434 3514.877197,885.932922   C3490.393799,884.761414 3470.275391,874.225159 3453.849854,856.286438   C3453.222168,855.600769 3452.772949,854.751831 3451.607910,853.060730   C3449.951172,860.956665 3448.476074,867.975586 3447.006348,874.995544   C3442.809082,895.039062 3438.579590,915.075806 3434.427979,935.128723   C3430.573242,953.749634 3426.710938,972.369873 3423.030273,991.025635   C3420.930176,1001.668335 3416.041748,1009.886536 3405.134277,1013.334351   C3403.760742,1013.768494 3402.256836,1013.969421 3400.812744,1013.972595   C3381.984619,1014.013916 3363.156738,1014.024353 3344.328613,1013.990662   C3333.425537,1013.971130 3327.224609,1005.499817 3329.564453,994.751648   C3334.231445,973.313293 3338.502441,951.788940 3343.018555,930.317322   C3347.101074,910.909302 3351.299561,891.525818 3355.431885,872.128296   C3359.628662,852.428101 3363.826904,832.728149 3367.988281,813.020325   C3372.117676,793.464233 3376.202881,773.898865 3380.306396,754.337341   C3384.541748,734.145508 3388.733154,713.944458 3393.023193,693.764221   C3396.131104,679.141968 3399.431152,664.560486 3402.531250,649.936584   C3406.745117,630.059143 3410.814453,610.151184 3415.025391,590.273071   C3416.202148,584.717773 3417.300537,579.104553 3419.060547,573.722656   C3422.836426,562.178223 3430.083984,557.787964 3441.765137,557.138733   C3453.226562,556.501831 3464.755859,556.799561 3476.245117,557.097290   C3480.931152,557.218750 3485.653809,558.141663 3490.241943,559.208313   C3494.899658,560.291199 3498.895508,567.066040 3498.979980,573.381836   C3499.068848,580.017761 3499.000000,586.655701 3499.000000,593.848755   C3506.154541,587.955933 3512.802734,582.245544 3519.696777,576.849426   C3536.521484,563.679749 3555.229248,554.398865 3576.652588,552.117065   C3610.514160,548.510376 3642.279053,554.650940 3669.876465,575.662964   C3691.943359,592.464478 3705.308594,615.170410 3712.004639,641.935303   C3713.052979,646.125122 3714.166504,650.298645 3715.625000,654.239868   C3716.000000,671.020874 3716.000000,688.041809 3716.000000,705.531372  M3612.497559,737.013611   C3619.109863,719.564392 3623.572754,701.963684 3619.094238,683.037292   C3614.926025,665.421814 3606.282959,651.351807 3589.800537,643.000366   C3573.523193,634.752930 3556.648193,635.249390 3539.762451,640.723755   C3519.594238,647.262146 3503.711914,660.012451 3491.021729,676.618652   C3474.563477,698.156189 3467.080322,722.440308 3471.043457,749.642883   C3472.825195,761.872437 3477.816895,772.863953 3486.385986,781.771301   C3505.847412,802.000305 3532.253662,804.375977 3556.763672,793.632751   C3573.491943,786.300598 3587.661865,775.435547 3598.495361,760.770142   C3603.771973,753.626892 3607.599854,745.413147 3612.497559,737.013611  z"/>

<path fill="#32FF7C" opacity="1.000000" stroke="none" d=" M840.731384,736.348755   C831.288025,721.463928 822.520203,706.566040 812.712524,692.387451   C796.305298,668.668213 779.635010,645.106995 762.309448,622.054993   C749.613098,605.162292 735.929749,588.988220 722.247437,572.866333   C707.974915,556.049133 693.346924,539.524048 678.552734,523.162231   C667.218445,510.627045 655.394348,498.534485 643.767761,486.264252   C637.039917,479.163879 630.421631,471.950989 623.486755,465.057617   C613.241455,454.873596 602.916260,444.759003 592.337830,434.923798   C577.932190,421.530243 563.527161,408.112946 548.629150,395.277679   C528.745911,378.147369 508.804047,361.035004 488.122620,344.894806   C466.415863,327.954437 443.892670,312.051331 421.567627,295.914368   C394.603638,276.424286 366.188843,259.221741 337.160065,243.001724   C304.590851,224.803421 270.922668,209.056625 235.311661,197.777725   C216.191528,191.721893 196.760437,187.274292 176.570465,185.781143   C159.063858,184.486435 142.400528,186.317505 126.174759,192.908051   C109.794456,199.561386 98.870026,211.547760 92.019028,227.520294   C85.181168,243.462158 83.426041,260.451599 85.318512,277.272888   C87.292740,294.820892 90.809830,312.349030 95.406990,329.413116   C102.777740,356.772522 114.153862,382.706177 126.897438,408.010559   C128.414352,411.022614 129.615341,414.193787 130.258133,417.743286   C128.781464,415.297180 127.183685,412.915253 125.847534,410.394653   C116.154678,392.109467 106.072052,374.013275 96.963562,355.440094   C83.941124,328.885895 72.625717,301.591888 63.673199,273.344208   C57.228779,253.010315 52.078815,232.349152 49.212887,211.260574   C47.460827,198.368271 46.651566,185.164352 47.223331,172.179855   C48.252472,148.808502 53.252190,126.418816 67.468140,106.853973   C77.525520,93.012383 90.753326,83.561829 106.214729,77.121704   C118.153618,72.148811 130.792007,70.043770 143.735718,68.811180   C160.473969,67.217255 176.883881,68.607422 193.403885,70.902458   C226.964493,75.564842 259.040466,85.459900 290.031311,98.714172   C313.948212,108.943039 337.865265,119.438347 360.760468,131.719971   C387.668884,146.154419 414.096649,161.700012 439.599030,178.486282   C471.686249,199.606857 502.924072,222.063293 533.941040,244.746475   C550.976379,257.204712 566.965698,271.122101 583.131287,284.732452   C598.746582,297.879456 614.054260,311.395844 629.357117,324.908417   C637.905029,332.456329 646.290527,340.198730 654.535278,348.077393   C673.140259,365.856323 691.824829,383.560852 710.067200,401.707581   C723.227234,414.798553 735.873413,428.417816 748.477966,442.051819   C760.014954,454.531097 771.474060,467.104523 782.453918,480.071350   C798.127747,498.581543 813.804504,517.124451 828.622498,536.315491   C848.273438,561.765869 867.301758,587.706055 886.220581,613.710083   C905.872925,640.722473 923.795471,668.890747 939.961853,698.126526   C951.156555,718.371460 962.398621,738.627441 972.564453,759.394897   C985.626404,786.078735 997.048584,813.550903 1005.409790,842.101929   C1010.329163,858.900452 1014.914246,875.946045 1017.624390,893.198669   C1020.145264,909.246521 1021.227173,925.757324 1020.689392,941.989685   C1019.989014,963.128967 1015.024719,983.550598 1003.049622,1001.670410   C991.476379,1019.182312 975.456360,1030.879761 955.585693,1036.796509   C945.214417,1039.884521 934.319397,1041.486328 923.548401,1042.903931   C898.416138,1046.211426 873.918335,1041.595093 849.479431,1036.262329   C820.010498,1029.832153 791.897217,1019.457458 764.266541,1007.638245   C754.253479,1003.355103 744.426514,998.636414 734.525940,994.091980   C733.680542,993.703918 732.920410,993.130127 732.408630,991.969788   C738.459839,994.097961 744.523071,996.192566 750.559998,998.360474   C769.579163,1005.190125 788.899170,1010.877991 809.080872,1012.954712   C818.571289,1013.931213 828.169983,1015.293152 837.633118,1014.804810   C858.633728,1013.721252 878.269714,1008.307251 893.288879,992.178345   C903.131348,981.608643 908.386230,968.814392 911.014893,954.765991   C914.832336,934.364929 912.202332,914.355225 908.182617,894.279541   C902.696655,866.880981 892.880066,841.002380 881.858398,815.494446   C870.407776,788.993774 856.544128,763.745667 841.992981,738.856140   C841.584412,738.157288 841.288086,737.392883 840.731384,736.348755  z"/>
<path fill="#FFFFFF" opacity="1.000000" stroke="none" d=" M2341.972656,460.000000   C2347.884521,460.333710 2353.497314,459.870148 2358.681641,461.146912   C2375.976562,465.406525 2393.343750,469.690094 2407.364014,481.840912   C2421.902100,494.440582 2431.844482,509.654358 2437.222900,528.365295   C2441.044922,541.661865 2442.005127,554.962708 2442.001953,568.543274   C2441.995850,594.709351 2442.284180,620.880066 2441.863037,647.039368   C2441.689941,657.791626 2441.326416,668.860291 2438.679932,679.177185   C2434.880615,693.988037 2429.221191,708.458618 2417.851562,719.564148   C2412.192383,725.091797 2406.104736,730.189514 2400.073975,735.320679   C2398.797607,736.406494 2396.924316,736.790344 2394.719482,737.766113   C2399.540771,748.029846 2404.485107,758.377625 2409.266602,768.800110   C2412.272217,775.351624 2414.981201,782.038452 2417.915527,788.623474   C2423.908691,802.072510 2429.944336,815.502625 2436.002441,828.922546   C2438.637451,834.759644 2441.402344,840.537903 2444.048340,846.369934   C2446.614258,852.025635 2444.816895,854.991211 2438.840332,854.994507   C2414.840820,855.007812 2390.840820,854.912415 2366.842773,855.090271   C2363.046631,855.118408 2361.307861,853.425598 2359.979736,850.357422   C2354.897705,838.614624 2349.827881,826.865356 2344.607666,815.183655   C2338.139404,800.708496 2331.558594,786.283325 2324.960449,771.866699   C2322.200439,765.836182 2319.387207,759.822693 2316.326904,753.942505   C2315.656006,752.653625 2313.854980,751.167908 2312.534912,751.129517   C2303.890869,750.878601 2295.236328,751.000427 2286.647461,751.000427   C2286.775879,752.962952 2286.984375,754.675903 2286.985596,756.388916   C2287.005615,786.054932 2287.004150,815.721008 2286.997314,845.387024   C2286.995361,853.395630 2285.363525,855.000000 2277.316406,855.000000   C2255.650146,855.000000 2233.983398,854.906982 2212.318359,855.073059   C2207.591797,855.109253 2205.928223,853.472168 2205.931396,848.714844   C2206.017578,721.550964 2205.998291,594.387024 2206.005127,467.223053   C2206.005615,460.831299 2206.836670,460.001190 2212.979980,460.000916   C2255.812500,459.999115 2298.645020,460.000000 2341.972656,460.000000  M2359.002686,646.354858   C2360.335205,638.911133 2362.624268,631.491577 2362.813721,624.018860   C2363.305420,604.616211 2363.814941,585.170959 2360.080078,565.902893   C2358.021729,555.284058 2350.201172,545.463013 2339.495361,544.192444   C2321.912354,542.105957 2304.181396,541.269592 2286.698730,539.920349   C2286.698730,584.456848 2286.698730,627.582275 2286.698730,671.000000   C2299.138428,671.000000 2311.781494,671.106689 2324.420654,670.931519   C2327.963867,670.882385 2331.585449,670.345459 2335.016113,669.443604   C2346.904785,666.318787 2355.967285,659.975037 2359.002686,646.354858  z"/>
<path fill="#FFFFFF" opacity="1.000000" stroke="none" d=" M1468.000000,580.002930   C1468.000000,583.664490 1468.018677,586.830505 1467.996094,589.996277   C1467.949951,596.492554 1466.533081,597.981567 1460.127319,597.989502   C1438.132812,598.016785 1416.138184,598.008179 1394.143677,597.994446   C1388.465210,597.990906 1387.231079,596.665283 1386.987549,590.797363   C1386.708008,584.059570 1387.123657,577.170166 1385.835449,570.622498   C1383.165283,557.051392 1375.830933,546.596558 1362.153687,542.098877   C1356.088135,540.104187 1349.322998,540.090881 1343.421143,537.782776   C1336.561401,535.099915 1329.555298,535.285461 1322.974487,536.256531   C1306.881714,538.631470 1291.456299,542.150635 1282.589844,558.997070   C1278.507202,566.754150 1276.234619,574.372437 1276.130127,582.558960   C1275.529541,629.628113 1275.286987,676.702148 1275.027100,723.775085   C1274.944946,738.644836 1279.758179,752.223145 1288.644775,763.830566   C1295.091187,772.250671 1304.500977,777.099548 1315.369873,777.944580   C1323.261353,778.558228 1331.225342,779.277039 1339.096680,778.846497   C1349.077148,778.300537 1358.820557,776.550537 1367.372314,770.297180   C1376.762329,763.430664 1381.027588,753.958740 1384.115234,743.229980   C1388.238525,728.902344 1387.949829,714.330261 1387.998779,699.720337   C1388.020996,693.082092 1389.063721,692.004395 1395.608887,692.002380   C1416.937012,691.995911 1438.265015,692.021545 1459.593140,691.987488   C1466.455811,691.976501 1468.036743,693.567383 1468.014160,700.469238   C1467.967163,714.798828 1468.535156,729.154907 1467.837891,743.450623   C1467.235107,755.806519 1466.659546,768.471802 1463.522217,780.325439   C1458.515991,799.239807 1450.498413,817.146362 1435.042847,830.326172   C1429.912720,834.700928 1424.108521,838.306335 1418.493408,842.086487   C1408.432495,848.859619 1396.870850,851.674988 1385.465088,855.308167   C1372.300537,859.501587 1359.025879,860.448303 1345.523071,861.015320   C1339.768188,861.256958 1333.966675,862.331909 1328.279297,861.873779   C1312.014526,860.563599 1295.538086,859.914917 1279.636719,856.627319   C1264.862427,853.572632 1250.176514,848.333740 1237.901001,839.066772   C1230.403442,833.406799 1224.142456,826.031067 1217.678955,819.097107   C1207.846191,808.548767 1202.657349,795.600525 1198.890747,781.866333   C1195.615356,769.924011 1193.006104,757.940063 1193.004150,745.504944   C1192.994873,687.852539 1193.119995,630.199646 1192.918823,572.547974   C1192.865967,557.424011 1196.279663,543.027100 1199.949219,528.565247   C1202.553955,518.299927 1207.038574,508.865936 1213.093994,500.388672   C1220.604248,489.874939 1229.563843,480.835510 1241.425781,474.716797   C1250.621338,469.973328 1259.614136,465.114136 1269.834717,462.951843   C1278.792969,461.056549 1287.628540,458.015411 1296.671997,457.213104   C1312.767944,455.785156 1329.020752,454.652313 1345.131714,455.298920   C1359.833008,455.888947 1374.786621,457.640686 1388.992432,461.330658   C1408.569580,466.415833 1426.337158,475.778259 1440.026001,491.499878   C1448.258179,500.954498 1454.606079,511.385406 1459.100952,523.164062   C1464.239624,536.630127 1466.710449,550.437134 1467.036377,564.756165   C1467.148438,569.677917 1467.667114,574.590454 1468.000000,580.002930  z"/>
<path fill="#3073FF" opacity="1.000000" stroke="none" d=" M2920.020020,557.146667   C2921.402588,558.063171 2922.773193,558.921570 2924.153809,558.937561   C2934.151855,559.053833 2944.181396,559.482666 2954.143555,558.873108   C2965.604248,558.171753 2969.669189,565.813232 2967.855713,575.863159   C2965.606934,588.325500 2962.689697,600.668762 2959.988525,613.047668   C2957.505615,624.425476 2949.236572,630.994629 2937.545654,630.999268   C2927.879639,631.003052 2918.211426,631.109558 2908.548584,630.934143   C2905.614502,630.880920 2904.533936,632.100769 2903.981934,634.720276   C2899.424072,656.345276 2894.714111,677.938416 2890.210449,699.574524   C2885.703125,721.228638 2881.511230,742.948792 2876.939453,764.588989   C2872.472412,785.733459 2867.686279,806.810425 2863.065918,827.922607   C2858.028809,850.938110 2853.553223,874.092834 2847.849365,896.941345   C2842.323242,919.077393 2832.478027,939.286804 2818.249756,957.415771   C2802.412598,977.594849 2782.772217,992.696533 2759.773438,1003.596497   C2746.476807,1009.898315 2732.540283,1014.339905 2717.842773,1015.982666   C2710.503906,1016.802856 2703.143066,1017.732117 2695.775146,1017.909363   C2684.078857,1018.190613 2679.072998,1011.172485 2681.612305,999.670898   C2684.662842,985.854248 2687.398682,971.961365 2689.938477,958.040833   C2691.738037,948.175903 2699.656982,941.148987 2709.637451,940.971985   C2720.856934,940.773254 2730.359131,936.090820 2739.118652,929.422668   C2753.894043,918.174927 2759.878906,902.422852 2763.101318,884.854553   C2766.385498,866.950989 2770.498047,849.198853 2774.281494,831.387512   C2778.500977,811.522217 2782.771729,791.667847 2786.993408,771.802979   C2790.778564,753.992615 2794.513916,736.171509 2798.296387,718.360535   C2802.515381,698.494873 2806.762451,678.635193 2810.998047,658.773071   C2812.928711,649.720215 2814.861572,640.667969 2816.924805,631.000000   C2809.041504,631.000000 2801.290039,631.011414 2793.538818,630.990906   C2791.880615,630.986511 2790.165527,631.119873 2788.574707,630.757996   C2779.415771,628.674622 2776.130127,623.679626 2778.157471,611.996216   C2780.486816,598.572510 2783.678467,585.274658 2787.053955,572.064758   C2789.235107,563.528625 2796.043701,559.011902 2804.884277,559.002258   C2814.037598,558.992310 2823.190918,559.000000 2832.799805,559.000000   C2835.216553,547.473816 2837.719971,536.093872 2839.972656,524.664551   C2843.870361,504.889160 2847.483154,485.023499 2857.033447,466.949646   C2869.739502,442.903107 2887.779053,423.973206 2911.331787,410.188873   C2929.425781,399.599213 2948.932373,393.183289 2969.495850,390.196411   C2978.790527,388.846436 2988.362549,388.887421 2997.789307,389.114319   C3007.623779,389.351013 3009.718750,394.127258 3009.731201,403.350342   C3009.740967,410.544159 3007.526123,417.783325 3005.957764,424.927277   C3003.487793,436.176819 3001.070312,447.457886 2997.984375,458.545776   C2995.616211,467.055084 2989.498047,470.714111 2980.780029,471.062531   C2965.832764,471.659943 2952.017090,475.404633 2941.484131,487.015564   C2935.032715,494.127075 2932.059326,502.861938 2930.005371,511.997803   C2926.655762,526.893860 2923.341553,541.797852 2920.020020,557.146667  z"/>
<path fill="#FFFFFF" opacity="1.000000" stroke="none" d=" M1892.019043,631.172546   C1896.690796,613.237244 1901.304810,595.719788 1906.018433,578.229187   C1908.355103,569.558350 1910.955688,560.958679 1913.294434,552.288330   C1917.255493,537.603027 1921.130249,522.894287 1924.990845,508.182190   C1928.040039,496.561890 1930.851318,484.876099 1934.102661,473.313446   C1935.356323,468.855408 1937.533325,464.657043 1939.428345,460.000000   C1957.035278,460.000000 1974.843140,460.000000 1992.651001,460.000000   C1999.317017,460.000000 2005.983032,459.999908 2012.649048,460.000000   C2019.356567,460.000092 2020.467163,460.944153 2022.194946,467.491364   C2026.161255,482.520752 2030.213379,497.527466 2034.206055,512.549927   C2038.817017,529.899414 2043.399170,547.256592 2047.998535,564.609192   C2051.329102,577.174194 2054.648438,589.742188 2058.006836,602.299622   C2060.984131,613.431274 2064.041992,624.541382 2067.003662,635.677185   C2070.049316,647.129456 2072.958984,658.618286 2076.042969,670.060120   C2079.291504,682.112427 2082.753662,694.107239 2085.979492,706.165466   C2089.090332,717.794922 2091.938477,729.494629 2095.049316,741.124023   C2098.274658,753.180908 2101.694336,765.185669 2104.996826,777.221985   C2108.351318,789.446594 2111.695801,801.674194 2114.990479,813.914917   C2117.861084,824.578369 2120.655273,835.262268 2123.484375,845.936829   C2125.471191,853.432495 2124.270996,854.999512 2116.531494,854.999756   C2094.366943,855.000427 2072.202148,854.934143 2050.038574,855.072388   C2046.788208,855.092651 2045.706543,854.055786 2044.893311,850.904968   C2040.444092,833.666199 2035.674316,816.509766 2030.974609,799.336121   C2028.690186,790.988586 2026.277832,782.676086 2024.005371,774.325378   C2023.094482,770.978210 2022.100098,768.802612 2017.597534,768.857666   C1993.103638,769.157166 1968.604004,769.000000 1944.106445,769.000000   C1935.995239,769.000000 1935.964966,768.992371 1934.009277,776.718689   C1931.643066,786.065613 1929.508667,795.474854 1926.957886,804.770447   C1923.624512,816.919067 1919.954346,828.975037 1916.489258,841.088013   C1915.538940,844.409485 1914.955078,847.840210 1913.918213,851.131042   C1913.161499,853.532776 1911.927490,855.129456 1908.663940,855.102173   C1885.667725,854.909729 1862.669312,855.013123 1839.671509,854.989624   C1834.757446,854.984558 1832.880005,852.502136 1834.149658,847.600342   C1838.490601,830.839905 1842.851196,814.084229 1847.289917,797.349426   C1850.787354,784.162292 1854.449463,771.018799 1857.966675,757.836853   C1861.359863,745.120300 1864.661865,732.379395 1868.002075,719.648743   C1871.010254,708.184448 1873.941406,696.699402 1877.043091,685.260498   C1880.275391,673.339722 1883.672607,661.463745 1886.994995,649.567383   C1888.667236,643.579651 1890.333374,637.590149 1892.019043,631.172546  M1991.002930,652.414612   C1987.009033,637.408936 1983.015137,622.403320 1978.862427,606.800964   C1974.754639,621.741821 1970.801514,635.760742 1967.058960,649.835571   C1963.350342,663.782837 1959.853760,677.786499 1956.241333,691.854492   C1972.136719,691.854492 1987.444580,691.854492 2003.554810,691.854492   C2002.557983,689.912720 2001.501709,688.522888 2001.101562,686.964661   C1998.937012,678.535034 1997.077271,670.025024 1994.799072,661.627747   C1994.008789,658.715210 1992.320312,656.046387 1991.002930,652.414612  z"/>
<path fill="#FFFFFF" opacity="1.000000" stroke="none" d=" M2546.000000,468.242279   C2546.074219,460.875305 2546.914551,460.000458 2553.478271,460.000214   C2574.810547,459.999512 2596.143066,459.999664 2617.475342,460.000214   C2624.288818,460.000397 2625.948242,461.661133 2625.988281,468.766998   C2626.037109,477.433014 2626.000000,486.099518 2626.000000,494.765808   C2626.000000,523.764587 2626.000000,552.763306 2626.000000,581.762085   C2626.000000,583.340942 2626.000000,584.919739 2626.000000,587.234863   C2632.325684,578.327637 2638.009277,569.972717 2644.054688,561.888611   C2654.982422,547.276672 2666.244873,532.914978 2677.138916,518.278442   C2684.755371,508.045319 2691.932373,497.486298 2699.416504,487.153015   C2705.142334,479.247528 2711.023682,471.454254 2716.873535,463.639191   C2718.856445,460.989929 2721.304932,459.863678 2724.889893,459.894836   C2748.386963,460.098999 2771.886719,460.011108 2795.385742,459.985168   C2798.135498,459.982117 2801.581299,459.342529 2802.165771,462.862091   C2802.618408,465.589203 2802.269531,469.095886 2800.850830,471.364044   C2796.896240,477.686951 2792.174805,483.527954 2787.802979,489.593109   C2783.549316,495.494781 2779.386719,501.462372 2775.126221,507.359314   C2765.476318,520.715576 2755.804688,534.056274 2746.115234,547.383972   C2737.148438,559.717590 2728.158203,572.034302 2719.152344,584.339600   C2716.828125,587.515625 2714.514160,590.709717 2712.005127,593.737671   C2708.199219,598.330627 2709.711670,602.651794 2711.913818,607.368042   C2714.757324,613.458740 2717.048340,619.808411 2719.546631,626.058716   C2725.365723,640.615540 2731.112061,655.201599 2737.006836,669.727539   C2738.757324,674.040833 2741.637695,678.027893 2742.639893,682.471313   C2743.461670,686.116882 2742.684570,690.307007 2741.876221,694.097900   C2740.175293,702.073669 2737.844727,709.913086 2736.035400,717.868347   C2733.365967,729.607849 2730.790039,741.372375 2728.429199,753.177246   C2726.431152,763.166260 2724.920166,773.252319 2722.951416,783.247681   C2721.805176,789.068909 2720.032715,794.764771 2718.808350,800.573181   C2717.076660,808.787048 2715.655518,817.065979 2713.968750,825.289856   C2713.305176,828.525696 2712.283203,831.688110 2711.058838,836.244202   C2708.898926,829.643555 2707.186523,824.176331 2705.320312,818.761902   C2702.501953,810.584045 2699.589844,802.438171 2696.692871,794.287476   C2691.351318,779.257996 2685.888916,764.270508 2680.669922,749.198608   C2675.816895,735.184021 2671.286621,721.057800 2666.479004,707.027100   C2662.813232,696.327576 2658.936035,685.700500 2655.038818,674.719910   C2646.770752,686.259460 2639.160889,698.106323 2630.219971,708.845154   C2625.716309,714.254211 2626.019775,719.632996 2626.015625,725.486023   C2625.986084,765.650940 2626.001465,805.815918 2625.998779,845.980835   C2625.998291,854.539856 2625.547607,855.000000 2617.295166,855.000000   C2595.796143,855.000061 2574.296875,855.002808 2552.797852,854.998291   C2546.404053,854.996948 2546.001709,854.595154 2546.001465,848.195190   C2545.999512,721.700806 2546.000000,595.206482 2546.000000,468.242279  z"/>
<path fill="#3073FF" opacity="1.000000" stroke="none" d=" M3017.000000,883.000000   C3009.335938,883.000000 3002.171631,883.000061 2995.007568,883.000000   C2982.551758,882.999878 2977.580322,876.701782 2980.151611,864.634583   C2986.852783,833.184021 2993.338867,801.687439 3000.066895,770.242615   C3005.196533,746.268982 3010.697754,722.374573 3015.791504,698.393494   C3021.024658,673.754761 3025.831787,649.025452 3031.068604,624.387451   C3036.199951,600.242554 3041.756836,576.187988 3046.906250,552.046814   C3051.755615,529.312866 3056.281738,506.510132 3061.015869,483.751343   C3065.981201,459.879303 3070.631104,435.931519 3076.176270,412.193726   C3079.707275,397.077698 3086.585693,392.616760 3101.054443,392.127502   C3117.363281,391.575958 3133.710693,391.744263 3150.031250,392.085022   C3162.133301,392.337708 3169.512695,400.223511 3166.804688,413.187195   C3159.766357,446.883087 3152.279785,480.485107 3145.059326,514.143311   C3138.994629,542.416016 3133.051270,570.714844 3127.056885,599.002625   C3120.049805,632.067261 3113.058838,665.135254 3106.037354,698.196777   C3100.398682,724.746582 3094.644775,751.272278 3089.088135,777.839172   C3082.961182,807.130981 3077.153564,836.490295 3070.886719,865.751587   C3068.638916,876.247253 3062.476807,883.179810 3049.989258,883.027466   C3039.160889,882.895447 3028.329834,883.000000 3017.000000,883.000000  z"/>
<path fill="#FFFFFF" opacity="1.000000" stroke="none" d=" M1747.000000,855.000000   C1689.016968,855.000000 1631.533813,855.000610 1574.050781,854.999207   C1567.300049,854.999023 1567.000732,854.700012 1567.000732,847.951233   C1566.999634,721.321838 1566.999634,594.692444 1567.000732,468.063080   C1567.000854,460.734253 1567.751099,460.000092 1575.184082,460.000061   C1596.344482,459.999939 1617.505005,459.999329 1638.665405,460.000336   C1645.278931,460.000671 1646.996216,461.718323 1646.996704,468.436829   C1647.001953,548.246643 1647.000000,628.056519 1647.000000,707.866333   C1647.000000,731.351501 1647.000000,754.836670 1647.000000,779.000000   C1648.855347,779.000000 1650.605957,779.000000 1652.356445,779.000000   C1692.677856,779.000000 1732.999390,778.998291 1773.320801,779.002014   C1778.812988,779.002502 1780.983032,781.170593 1780.989868,786.825684   C1781.015015,807.319641 1781.018799,827.813660 1780.988037,848.307617   C1780.979492,854.010986 1779.969116,854.991943 1774.492554,854.997559   C1765.494995,855.006775 1756.497559,855.000000 1747.000000,855.000000  z"/>
<path fill="#3073FF" opacity="1.000000" stroke="none" d=" M3248.105225,559.000000   C3266.582031,559.000000 3284.591797,559.463501 3302.558105,558.782593   C3310.248779,558.491150 3317.850586,566.046753 3315.834229,575.415833   C3309.512207,604.794128 3303.301758,634.196411 3296.963867,663.571289   C3292.168213,685.798035 3287.165771,707.980286 3282.398438,730.212891   C3277.834473,751.496582 3273.507080,772.830933 3268.977051,794.122009   C3265.224609,811.758606 3261.353027,829.369995 3257.485107,846.981689   C3255.746338,854.898560 3254.179688,862.870789 3252.001465,870.668823   C3249.687256,878.954468 3243.914551,882.986816 3235.506348,882.994568   C3216.514648,883.012085 3197.520752,882.833069 3178.531738,883.055298   C3164.558105,883.218811 3163.424561,876.510742 3165.539551,866.047668   C3171.138184,838.352356 3177.120850,810.734314 3183.022705,783.100830   C3187.806885,760.699524 3192.751953,738.332520 3197.524170,715.928711   C3203.076904,689.858765 3208.482666,663.757507 3214.020264,637.684326   C3217.733154,620.202576 3221.553223,602.743469 3225.351562,585.279968   C3226.143311,581.640198 3227.333008,578.065430 3227.851562,574.391907   C3229.252197,564.468628 3237.014404,557.856079 3248.105225,559.000000  z"/>
<path fill="#3073FF" opacity="1.000000" stroke="none" d=" M3253.243652,501.743042   C3243.888428,491.974243 3241.161621,480.889801 3242.748047,467.772064   C3244.643311,452.103485 3251.594971,439.407776 3262.706055,428.942749   C3280.232422,412.434906 3300.908691,407.127014 3323.818848,415.213440   C3336.129150,419.558563 3344.613281,431.425629 3345.896240,444.654175   C3347.855713,464.858856 3341.407959,482.283051 3326.344727,496.056427   C3314.821289,506.593201 3301.631104,513.356873 3285.380615,513.107910   C3276.902344,512.978027 3268.617188,512.776855 3261.259033,508.003479   C3258.523438,506.228882 3256.074707,504.011780 3253.243652,501.743042  z"/>




</svg>